<mxfile host="app.diagrams.net" modified="2023-04-27T13:56:54.667Z" agent="Mozilla/5.0 (X11; Ubuntu; Linux x86_64; rv:109.0) Gecko/20100101 Firefox/112.0" etag="ySAGquEI6OdGVJujHzAL" version="21.2.2" type="device">
  <diagram name="Page-1" id="TYmmPNF2BLm5hJys9Faa">
    <mxGraphModel dx="1178" dy="593" grid="1" gridSize="10" guides="1" tooltips="1" connect="1" arrows="1" fold="1" page="1" pageScale="1" pageWidth="850" pageHeight="1100" math="0" shadow="0">
      <root>
        <mxCell id="0" />
        <mxCell id="1" parent="0" />
        <mxCell id="C8bRKrwIwBfJNR0NoLEV-5" value="" style="rounded=0;whiteSpace=wrap;html=1;" vertex="1" parent="1">
          <mxGeometry x="40" y="60" width="320" height="70" as="geometry" />
        </mxCell>
        <mxCell id="C8bRKrwIwBfJNR0NoLEV-7" value="&lt;font style=&quot;font-size: 18px;&quot;&gt;&lt;b&gt;Vorbedigung :&lt;/b&gt;&lt;/font&gt;" style="text;html=1;strokeColor=none;fillColor=none;align=center;verticalAlign=middle;whiteSpace=wrap;rounded=0;" vertex="1" parent="1">
          <mxGeometry x="34" y="60" width="140" height="30" as="geometry" />
        </mxCell>
        <mxCell id="C8bRKrwIwBfJNR0NoLEV-9" value="&lt;div align=&quot;left&quot;&gt;Eine .csv-Daten, die die persönlichen Daten von n Teilnehmern enthält,&amp;nbsp; ist verfügbar. Die Teilnehmerliste ist leer&lt;br&gt;&lt;/div&gt;" style="text;html=1;strokeColor=none;fillColor=none;align=left;verticalAlign=middle;whiteSpace=wrap;rounded=0;" vertex="1" parent="1">
          <mxGeometry x="40" y="84" width="319" height="40" as="geometry" />
        </mxCell>
        <mxCell id="C8bRKrwIwBfJNR0NoLEV-10" value="" style="rounded=0;whiteSpace=wrap;html=1;" vertex="1" parent="1">
          <mxGeometry x="40" y="130" width="320" height="40" as="geometry" />
        </mxCell>
        <mxCell id="C8bRKrwIwBfJNR0NoLEV-11" value="&lt;font style=&quot;font-size: 18px;&quot;&gt;&lt;b&gt;Ablauf :&lt;br&gt;&lt;/b&gt;&lt;/font&gt;" style="text;html=1;strokeColor=none;fillColor=none;align=center;verticalAlign=middle;whiteSpace=wrap;rounded=0;" vertex="1" parent="1">
          <mxGeometry x="23" y="129" width="107" height="30" as="geometry" />
        </mxCell>
        <mxCell id="C8bRKrwIwBfJNR0NoLEV-12" value="&lt;div&gt;Der Nutzer liest die .csv-Daten mit der Funktion &quot;readCSV&quot;&lt;/div&gt;" style="text;html=1;strokeColor=none;fillColor=none;align=left;verticalAlign=middle;whiteSpace=wrap;rounded=0;" vertex="1" parent="1">
          <mxGeometry x="40" y="141" width="319" height="40" as="geometry" />
        </mxCell>
        <mxCell id="C8bRKrwIwBfJNR0NoLEV-13" value="&lt;font style=&quot;font-size: 18px;&quot;&gt;&lt;b&gt;Teilnehmerliste im .csv DatenFormat einlesen.&lt;br&gt;&lt;/b&gt;&lt;/font&gt;" style="text;html=1;strokeColor=none;fillColor=none;align=center;verticalAlign=middle;whiteSpace=wrap;rounded=0;" vertex="1" parent="1">
          <mxGeometry x="25" y="23" width="220" height="30" as="geometry" />
        </mxCell>
        <mxCell id="C8bRKrwIwBfJNR0NoLEV-15" value="" style="rounded=0;whiteSpace=wrap;html=1;" vertex="1" parent="1">
          <mxGeometry x="40" y="170" width="320" height="60" as="geometry" />
        </mxCell>
        <mxCell id="C8bRKrwIwBfJNR0NoLEV-16" value="&lt;div&gt;Die .csv-Daten hat eingelesen. Die Teilnehmerliste enthält&lt;/div&gt;&lt;div&gt;jetzt alle persönlichen Daten von n Teilnehmern.&lt;br&gt;&lt;/div&gt;" style="text;html=1;strokeColor=none;fillColor=none;align=left;verticalAlign=middle;whiteSpace=wrap;rounded=0;" vertex="1" parent="1">
          <mxGeometry x="40" y="190" width="319" height="40" as="geometry" />
        </mxCell>
        <mxCell id="C8bRKrwIwBfJNR0NoLEV-17" value="&lt;font style=&quot;font-size: 18px;&quot;&gt;&lt;b&gt;Erwartetes Verhalten :&lt;br&gt;&lt;/b&gt;&lt;/font&gt;" style="text;html=1;strokeColor=none;fillColor=none;align=center;verticalAlign=middle;whiteSpace=wrap;rounded=0;" vertex="1" parent="1">
          <mxGeometry x="33" y="170" width="207" height="30" as="geometry" />
        </mxCell>
        <mxCell id="C8bRKrwIwBfJNR0NoLEV-18" value="" style="rounded=0;whiteSpace=wrap;html=1;" vertex="1" parent="1">
          <mxGeometry x="40" y="230" width="320" height="40" as="geometry" />
        </mxCell>
        <mxCell id="C8bRKrwIwBfJNR0NoLEV-20" value="&lt;font style=&quot;font-size: 18px;&quot;&gt;&lt;b&gt;Tatsächliches Verhalten :&lt;br&gt;&lt;/b&gt;&lt;/font&gt;" style="text;html=1;strokeColor=none;fillColor=none;align=center;verticalAlign=middle;whiteSpace=wrap;rounded=0;" vertex="1" parent="1">
          <mxGeometry x="31" y="230" width="238" height="30" as="geometry" />
        </mxCell>
      </root>
    </mxGraphModel>
  </diagram>
</mxfile>
